<svg width="4" height="19" viewBox="0 0 4 19" fill="none" xmlns="http://www.w3.org/2000/svg">
<path d="M2.00849 18.6328C3.03681 18.6328 3.87476 17.7949 3.87476 16.7634C3.87476 15.7336 3.03681 14.894 2.00849 14.894C0.978609 14.894 0.140661 15.7336 0.140661 16.7634C0.140661 17.7949 0.978609 18.6328 2.00849 18.6328Z" fill="#B9B9B9"/>
<path d="M2.00605 11.6445C3.03437 11.6445 3.87231 10.805 3.87231 9.77515C3.87231 8.74371 3.03437 7.90576 2.00605 7.90576C0.976167 7.90576 0.13822 8.74371 0.13822 9.77515C0.13822 10.805 0.976167 11.6445 2.00605 11.6445Z" fill="#B9B9B9"/>
<path d="M2.00605 4.65308C3.03437 4.65308 3.87231 3.81514 3.87231 2.78369C3.87231 1.75381 3.03437 0.914307 2.00605 0.914307C0.976167 0.914307 0.13822 1.75381 0.13822 2.78369C0.13822 3.81513 0.976167 4.65308 2.00605 4.65308Z" fill="#B9B9B9"/>
</svg>
