<svg width="19" height="19" viewBox="0 0 19 19" fill="none" xmlns="http://www.w3.org/2000/svg">
<path d="M2.71818 7.00385C1.46528 7.00385 0.440186 8.02894 0.440186 9.28184C0.440186 10.5347 1.46528 11.5598 2.71818 11.5598C3.97107 11.5598 4.99617 10.5347 4.99617 9.28184C4.99617 8.02894 3.97107 7.00385 2.71818 7.00385ZM16.3861 7.00385C15.1332 7.00385 14.1081 8.02894 14.1081 9.28184C14.1081 10.5347 15.1332 11.5598 16.3861 11.5598C17.639 11.5598 18.6641 10.5347 18.6641 9.28184C18.6641 8.02894 17.639 7.00385 16.3861 7.00385ZM9.55215 7.00385C8.29926 7.00385 7.27416 8.02894 7.27416 9.28184C7.27416 10.5347 8.29926 11.5598 9.55215 11.5598C10.8051 11.5598 11.8301 10.5347 11.8301 9.28184C11.8301 8.02894 10.8051 7.00385 9.55215 7.00385Z" fill="white"/>
<path d="M2.71818 7.00385C1.46528 7.00385 0.440186 8.02894 0.440186 9.28184C0.440186 10.5347 1.46528 11.5598 2.71818 11.5598C3.97107 11.5598 4.99617 10.5347 4.99617 9.28184C4.99617 8.02894 3.97107 7.00385 2.71818 7.00385ZM16.3861 7.00385C15.1332 7.00385 14.1081 8.02894 14.1081 9.28184C14.1081 10.5347 15.1332 11.5598 16.3861 11.5598C17.639 11.5598 18.6641 10.5347 18.6641 9.28184C18.6641 8.02894 17.639 7.00385 16.3861 7.00385ZM9.55215 7.00385C8.29926 7.00385 7.27416 8.02894 7.27416 9.28184C7.27416 10.5347 8.29926 11.5598 9.55215 11.5598C10.8051 11.5598 11.8301 10.5347 11.8301 9.28184C11.8301 8.02894 10.8051 7.00385 9.55215 7.00385Z" fill="#4E5D78"/>
</svg>
