<?xml version="1.0" encoding="utf-8"?>
<!-- Generator: Adobe Illustrator 22.0.0, SVG Export Plug-In . SVG Version: 6.00 Build 0)  -->
<svg version="1.1" id="Layer_1" xmlns="http://www.w3.org/2000/svg" xmlns:xlink="http://www.w3.org/1999/xlink" x="0px" y="0px"
	 viewBox="0 0 448 512" style="enable-background:new 0 0 448 512;" xml:space="preserve">
<style type="text/css">
	.st0{fill:url(#SVGID_1_);}
</style>
<linearGradient id="SVGID_1_" gradientUnits="userSpaceOnUse" x1="0" y1="256" x2="448" y2="256">
	<stop  offset="0" style="stop-color:#B950BA"/>
	<stop  offset="1" style="stop-color:#FFC659"/>
</linearGradient>
<path class="st0" d="M16,132h416c8.8,0,16-7.2,16-16V76c0-8.8-7.2-16-16-16H16C7.2,60,0,67.2,0,76v40C0,124.8,7.2,132,16,132z
	 M110.5,292h325c6.9,0,12.5-7.2,12.5-16v-40c0-8.8-5.6-16-12.5-16h-325c-6.9,0-12.5,7.2-12.5,16v40C98,284.8,103.6,292,110.5,292z
	 M16,452h416c8.8,0,16-7.2,16-16v-40c0-8.8-7.2-16-16-16H16c-8.8,0-16,7.2-16,16v40C0,444.8,7.2,452,16,452z"/>
</svg>
