<svg width="26" height="26" viewBox="0 0 26 26" fill="none" xmlns="http://www.w3.org/2000/svg">
<path d="M21.6864 10.7554H18.6863C16.2261 10.7554 14.2225 8.75189 14.2225 6.29161V3.29151C14.2225 2.72056 13.7554 2.25342 13.1844 2.25342H8.78292C5.58559 2.25342 3.00073 4.32961 3.00073 8.03561V17.2331C3.00073 20.9391 5.58559 23.0153 8.78292 23.0153H16.9424C20.1397 23.0153 22.7245 20.9391 22.7245 17.2331V11.7935C22.7245 11.2226 22.2574 10.7554 21.6864 10.7554Z" fill="#2697FF"/>
<path d="M16.8078 2.47157C16.3822 2.04595 15.6451 2.33661 15.6451 2.92833V6.55128C15.6451 8.0669 16.9324 9.323 18.4999 9.323C19.4861 9.33338 20.8564 9.33338 22.0294 9.33338C22.6211 9.33338 22.9326 8.63785 22.5173 8.22261C21.0225 6.71738 18.3442 4.00795 16.8078 2.47157Z" fill="#2697FF"/>
</svg>
