<svg width="27" height="27" viewBox="0 0 27 27" fill="none" xmlns="http://www.w3.org/2000/svg">
<path fill-rule="evenodd" clip-rule="evenodd" d="M10.0415 18.4387H16.1009C16.5575 18.4387 16.9363 18.0562 16.9363 17.595C16.9363 17.1337 16.5575 16.7625 16.1009 16.7625H10.0415C9.58478 16.7625 9.20606 17.1337 9.20606 17.595C9.20606 18.0562 9.58478 18.4387 10.0415 18.4387ZM13.8063 11.1375H10.0415C9.58478 11.1375 9.20606 11.52 9.20606 11.9812C9.20606 12.4425 9.58478 12.8138 10.0415 12.8138H13.8063C14.263 12.8138 14.6417 12.4425 14.6417 11.9812C14.6417 11.52 14.263 11.1375 13.8063 11.1375ZM21.7553 10.1538C22.0171 10.1508 22.3022 10.1475 22.5613 10.1475C22.8397 10.1475 23.0625 10.3725 23.0625 10.6537V19.6987C23.0625 22.4888 20.8236 24.75 18.0613 24.75H9.19493C6.29889 24.75 3.9375 22.3762 3.9375 19.4513V7.32375C3.9375 4.53375 6.1875 2.25 8.96101 2.25H14.909C15.1986 2.25 15.4214 2.48625 15.4214 2.7675V6.39C15.4214 8.44875 17.1033 10.1363 19.1417 10.1475C19.6178 10.1475 20.0376 10.1511 20.4049 10.1542C20.6907 10.1566 20.9447 10.1588 21.1689 10.1588C21.3275 10.1588 21.533 10.1564 21.7553 10.1538ZM22.0625 8.51175C21.1469 8.51513 20.0675 8.51175 19.2912 8.50388C18.0593 8.50388 17.0445 7.479 17.0445 6.23475V3.26925C17.0445 2.78437 17.6271 2.54362 17.9601 2.8935C18.5627 3.52631 19.3907 4.39608 20.215 5.26197C21.0378 6.12632 21.8569 6.9868 22.4445 7.60388C22.7698 7.94475 22.5314 8.51062 22.0625 8.51175Z" fill="#6565D2"/>
</svg>
