<?xml version="1.0" encoding="utf-8"?>
<!-- Generator: Adobe Illustrator 22.0.0, SVG Export Plug-In . SVG Version: 6.00 Build 0)  -->
<svg version="1.1" id="Capa_1" xmlns="http://www.w3.org/2000/svg" xmlns:xlink="http://www.w3.org/1999/xlink" x="0px" y="0px"
	 viewBox="0 0 348.3 348.3" style="enable-background:new 0 0 348.3 348.3;" xml:space="preserve">
<style type="text/css">
	.st0{fill:#FFFFFF;}
</style>
<g>
	<path class="st0" d="M302.1,91l-83.2,83.2l83.1,83.1c12.4,12.4,12.4,32.4,0,44.8c-6.1,6.1-14.3,9.3-22.4,9.3
		c-8.1,0-16.2-3.1-22.4-9.3l-83.1-83.2L91,302.1c-6.1,6.1-14.3,9.3-22.4,9.3c-8.1,0-16.2-3.1-22.4-9.3c-12.4-12.4-12.4-32.4,0-44.8
		l83.1-83.1L46.3,91c-12.4-12.4-12.4-32.4,0-44.7s32.4-12.4,44.7,0l83.2,83.2l83.1-83.2c12.4-12.4,32.4-12.4,44.7,0
		C314.5,58.6,314.5,78.7,302.1,91z"/>
</g>
</svg>
