<svg width="50" height="49" viewBox="0 0 50 49" fill="none" xmlns="http://www.w3.org/2000/svg">
<path d="M14.5834 12.25H35.4168C36.7084 12.25 37.8543 12.2908 38.8751 12.4338C44.3543 13.0258 45.8334 15.5575 45.8334 22.4583V26.5417C45.8334 33.4425 44.3543 35.9742 38.8751 36.5663C37.8543 36.7092 36.7084 36.75 35.4168 36.75H14.5834C13.2917 36.75 12.1459 36.7092 11.1251 36.5663C5.64591 35.9742 4.16675 33.4425 4.16675 26.5417V22.4583C4.16675 15.5575 5.64591 13.0258 11.1251 12.4338C12.1459 12.2908 13.2917 12.25 14.5834 12.25Z" stroke="#2697FF" stroke-width="2.125" stroke-linecap="round" stroke-linejoin="round"/>
<path d="M35.4168 36.7499C36.7084 36.7499 37.8542 36.7091 38.8751 36.5662C38.8959 36.852 38.8959 37.1174 38.8959 37.4237V38.1178C38.8959 43.5487 37.5001 44.9166 31.9376 44.9166H18.0626C12.5001 44.9166 11.1042 43.5487 11.1042 38.1178V37.4237C11.1042 37.1174 11.1042 36.852 11.1251 36.5662C12.1459 36.7091 13.2917 36.7499 14.5834 36.7499H35.4168Z" stroke="#2697FF" stroke-width="2.125" stroke-linecap="round" stroke-linejoin="round"/>
<path d="M18.0626 4.08334H31.9376C37.5001 4.08334 38.8959 5.45126 38.8959 10.8821V11.5763C38.8959 11.8825 38.8959 12.1479 38.8751 12.4338C37.8542 12.2908 36.7084 12.25 35.4168 12.25H14.5834C13.2917 12.25 12.1459 12.2908 11.1251 12.4338C11.1042 12.1479 11.1042 11.8825 11.1042 11.5763V10.8821C11.1042 5.45126 12.5001 4.08334 18.0626 4.08334Z" stroke="#2697FF" stroke-width="2.125" stroke-linecap="round" stroke-linejoin="round"/>
</svg>
