<svg width="16" height="16" viewBox="0 0 16 16" fill="none" xmlns="http://www.w3.org/2000/svg">
<path d="M14.5941 2.33069C16.4037 4.04841 16.4661 6.78403 14.7829 8.5684L7.99905 15L1.21678 8.5684C-0.466386 6.78403 -0.403187 4.04386 1.40558 2.33069C3.21754 0.615997 6.11589 0.558437 8.00066 2.15801C9.87982 0.560709 12.7838 0.613725 14.5941 2.33069ZM2.53756 3.40237C1.34558 4.53085 1.28558 6.33718 2.38396 7.5308L7.99986 12.8559L13.6158 7.53156C14.7149 6.33718 14.6549 4.53312 13.4614 3.40085C12.2718 2.27237 10.3566 2.21784 9.09903 3.25998L5.7375 6.44321L4.60552 5.37229L6.86548 3.2312L6.79988 3.17894C5.5399 2.22087 3.69834 2.30266 2.53756 3.40237Z" fill="white"/>
<path d="M14.5941 2.33069C16.4037 4.04841 16.4661 6.78403 14.7829 8.5684L7.99905 15L1.21678 8.5684C-0.466386 6.78403 -0.403187 4.04386 1.40558 2.33069C3.21754 0.615997 6.11589 0.558437 8.00066 2.15801C9.87982 0.560709 12.7838 0.613725 14.5941 2.33069ZM2.53756 3.40237C1.34558 4.53085 1.28558 6.33718 2.38396 7.5308L7.99986 12.8559L13.6158 7.53156C14.7149 6.33718 14.6549 4.53312 13.4614 3.40085C12.2718 2.27237 10.3566 2.21784 9.09903 3.25998L5.7375 6.44321L4.60552 5.37229L6.86548 3.2312L6.79988 3.17894C5.5399 2.22087 3.69834 2.30266 2.53756 3.40237Z" fill="#4E5D78"/>
</svg>
