<svg width="27" height="27" viewBox="0 0 27 27" fill="none" xmlns="http://www.w3.org/2000/svg">
<path fill-rule="evenodd" clip-rule="evenodd" d="M8.62446 24.75H18.3744C22.1885 24.75 24.75 22.0746 24.75 18.0937V8.90631C24.75 4.92538 22.1885 2.25 18.3755 2.25H8.62446C4.81151 2.25 2.25 4.92538 2.25 8.90631V18.0937C2.25 22.0746 4.81151 24.75 8.62446 24.75ZM9.56122 12.375C8.01024 12.375 6.75 11.1131 6.75 9.5625C6.75 8.01195 8.01024 6.75 9.56122 6.75C11.1111 6.75 12.3724 8.01195 12.3724 9.5625C12.3724 11.1131 11.1111 12.375 9.56122 12.375ZM22.2984 16.8007C22.6751 17.7666 22.4794 18.9276 22.0767 19.8843C21.5993 21.0221 20.6852 21.8835 19.5336 22.2597C19.0222 22.4269 18.486 22.5 17.9509 22.5H8.46973C7.52624 22.5 6.69136 22.2736 6.00694 21.8522C5.57819 21.5875 5.50239 20.9768 5.82028 20.5809C6.35198 19.9191 6.87689 19.255 7.40633 18.5851C8.41542 17.3034 9.09532 16.9319 9.85101 17.2581C10.1576 17.3928 10.4653 17.5948 10.782 17.8084C11.626 18.382 12.7991 19.1703 14.3444 18.3146C15.4019 17.7223 16.0153 16.7064 16.5494 15.8217L16.5583 15.8069C16.5962 15.7448 16.6337 15.6828 16.6711 15.6209C16.8506 15.3238 17.0277 15.0308 17.228 14.7608C17.4792 14.423 18.4102 13.3665 19.6162 14.1188C20.3843 14.5925 21.0303 15.2334 21.7215 15.9195C21.9851 16.1819 22.1728 16.4803 22.2984 16.8007Z" fill="#26BFF9"/>
</svg>
