<svg width="21" height="20" viewBox="0 0 21 20" fill="none" xmlns="http://www.w3.org/2000/svg">
<path d="M10.2454 18.2957C14.7438 18.2957 18.3905 14.649 18.3905 10.1505C18.3905 5.65208 14.7438 2.00537 10.2454 2.00537C5.74693 2.00537 2.10022 5.65208 2.10022 10.1505C2.10022 14.649 5.74693 18.2957 10.2454 18.2957Z" stroke="black" stroke-opacity="0.4" stroke-width="1.08602" stroke-linecap="round" stroke-linejoin="round"/>
<path d="M9.2272 12.2113V8.08982C9.2272 7.69886 9.0643 7.5441 8.6489 7.5441H7.59003C7.17462 7.5441 7.01172 7.69886 7.01172 8.08982V12.2113C7.01172 12.6022 7.17462 12.757 7.59003 12.757H8.64075C9.0643 12.757 9.2272 12.6022 9.2272 12.2113Z" stroke="black" stroke-opacity="0.4" stroke-width="1.08602" stroke-linecap="round" stroke-linejoin="round"/>
<path d="M13.5281 12.2113V8.08982C13.5281 7.69886 13.3652 7.5441 12.9498 7.5441H11.8991C11.4837 7.5441 11.3208 7.69886 11.3208 8.08982V12.2113C11.3208 12.6022 11.4837 12.757 11.8991 12.757H12.9498C13.3652 12.757 13.5281 12.6022 13.5281 12.2113Z" stroke="black" stroke-opacity="0.4" stroke-width="1.08602" stroke-linecap="round" stroke-linejoin="round"/>
</svg>
