<svg width="16" height="16" viewBox="0 0 16 16" fill="none" xmlns="http://www.w3.org/2000/svg">
<path d="M3.61387 8.66513C3.69199 8.58689 3.78476 8.52481 3.88689 8.48246C3.98901 8.44011 4.09849 8.41831 4.20905 8.41831C4.31961 8.41831 4.42908 8.44011 4.53121 8.48246C4.63334 8.52481 4.72611 8.58689 4.80422 8.66513L6.1461 10.007C6.76821 9.82181 7.9291 9.40089 8.66486 8.66513C9.40062 7.92937 9.82153 6.76849 10.0067 6.14637L8.66486 4.8045C8.58661 4.72638 8.52454 4.63361 8.48218 4.53148C8.43983 4.42936 8.41803 4.31988 8.41803 4.20932C8.41803 4.09876 8.43983 3.98929 8.48218 3.88716C8.52454 3.78503 8.58661 3.69226 8.66486 3.61415L12.0322 0.246826C12.1103 0.168581 12.2031 0.106507 12.3052 0.0641535C12.4073 0.0218004 12.5168 0 12.6274 0C12.7379 0 12.8474 0.0218004 12.9495 0.0641535C13.0516 0.106507 13.1444 0.168581 13.2225 0.246826L15.748 2.77232C15.8946 2.91811 15.9819 3.11308 15.993 3.31951C16.0056 3.52996 16.2472 8.51528 12.3807 12.3818C9.02348 15.7382 4.81264 16 3.60209 16C3.41773 16 3.31839 15.9933 3.31839 15.9933C3.11383 15.9806 2.916 15.8939 2.77204 15.7483L0.246552 13.2228C0.168307 13.1447 0.106232 13.0519 0.063879 12.9498C0.0215254 12.8477 -0.000272751 12.7382 -0.000272751 12.6276C-0.000272751 12.5171 0.0215254 12.4076 0.063879 12.3055C0.106232 12.2033 0.168307 12.1106 0.246552 12.0325L3.61387 8.66513ZM3.71994 14.3155C4.89935 14.2978 8.39042 13.9897 11.1903 11.1906C14.0037 8.37638 14.2925 4.77419 14.3135 3.71853L12.6274 2.03235L10.4504 4.20932L11.5389 5.29781C11.6378 5.39668 11.7106 5.51865 11.7505 5.6527C11.7905 5.78674 11.7965 5.92864 11.7678 6.06556C11.7476 6.16237 11.2535 8.45804 9.85605 9.85548C8.45861 11.2529 6.16294 11.7471 6.06612 11.7673C5.92928 11.7964 5.78733 11.7908 5.65322 11.7509C5.51911 11.7111 5.39711 11.6383 5.29838 11.5391L4.20989 10.4507L2.03292 12.6276L3.71994 14.3155Z" fill="white"/>
<path d="M3.61387 8.66513C3.69199 8.58689 3.78476 8.52481 3.88689 8.48246C3.98901 8.44011 4.09849 8.41831 4.20905 8.41831C4.31961 8.41831 4.42908 8.44011 4.53121 8.48246C4.63334 8.52481 4.72611 8.58689 4.80422 8.66513L6.1461 10.007C6.76821 9.82181 7.9291 9.40089 8.66486 8.66513C9.40062 7.92937 9.82153 6.76849 10.0067 6.14637L8.66486 4.8045C8.58661 4.72638 8.52454 4.63361 8.48218 4.53148C8.43983 4.42936 8.41803 4.31988 8.41803 4.20932C8.41803 4.09876 8.43983 3.98929 8.48218 3.88716C8.52454 3.78503 8.58661 3.69226 8.66486 3.61415L12.0322 0.246826C12.1103 0.168581 12.2031 0.106507 12.3052 0.0641535C12.4073 0.0218004 12.5168 0 12.6274 0C12.7379 0 12.8474 0.0218004 12.9495 0.0641535C13.0516 0.106507 13.1444 0.168581 13.2225 0.246826L15.748 2.77232C15.8946 2.91811 15.9819 3.11308 15.993 3.31951C16.0056 3.52996 16.2472 8.51528 12.3807 12.3818C9.02348 15.7382 4.81264 16 3.60209 16C3.41773 16 3.31839 15.9933 3.31839 15.9933C3.11383 15.9806 2.916 15.8939 2.77204 15.7483L0.246552 13.2228C0.168307 13.1447 0.106232 13.0519 0.063879 12.9498C0.0215254 12.8477 -0.000272751 12.7382 -0.000272751 12.6276C-0.000272751 12.5171 0.0215254 12.4076 0.063879 12.3055C0.106232 12.2033 0.168307 12.1106 0.246552 12.0325L3.61387 8.66513ZM3.71994 14.3155C4.89935 14.2978 8.39042 13.9897 11.1903 11.1906C14.0037 8.37638 14.2925 4.77419 14.3135 3.71853L12.6274 2.03235L10.4504 4.20932L11.5389 5.29781C11.6378 5.39668 11.7106 5.51865 11.7505 5.6527C11.7905 5.78674 11.7965 5.92864 11.7678 6.06556C11.7476 6.16237 11.2535 8.45804 9.85605 9.85548C8.45861 11.2529 6.16294 11.7471 6.06612 11.7673C5.92928 11.7964 5.78733 11.7908 5.65322 11.7509C5.51911 11.7111 5.39711 11.6383 5.29838 11.5391L4.20989 10.4507L2.03292 12.6276L3.71994 14.3155Z" fill="#4E5D78"/>
</svg>
