<svg width="18" height="19" viewBox="0 0 18 19" fill="none" xmlns="http://www.w3.org/2000/svg">
<path d="M1.45825 7.31242V5.85409C1.45825 3.66659 2.91659 2.20825 5.10409 2.20825H12.3958C14.5833 2.20825 16.0416 3.66659 16.0416 5.85409V7.31242" stroke="#292D32" stroke-width="1.09375" stroke-miterlimit="10" stroke-linecap="round" stroke-linejoin="round"/>
<path d="M1.45825 11.6875V13.1458C1.45825 15.3333 2.91659 16.7917 5.10409 16.7917H12.3958C14.5833 16.7917 16.0416 15.3333 16.0416 13.1458V11.6875" stroke="#292D32" stroke-width="1.09375" stroke-miterlimit="10" stroke-linecap="round" stroke-linejoin="round"/>
<path d="M4.8855 7.50171L8.75008 9.74026L12.5855 7.51631" stroke="#292D32" stroke-width="1.09375" stroke-linecap="round" stroke-linejoin="round"/>
<path d="M8.75 13.7069V9.73291" stroke="#292D32" stroke-width="1.09375" stroke-linecap="round" stroke-linejoin="round"/>
<path d="M7.84612 5.33633L5.51279 6.63427C4.98779 6.92593 4.55029 7.66238 4.55029 8.26759V10.7395C4.55029 11.3447 4.9805 12.0811 5.51279 12.3728L7.84612 13.6707C8.34195 13.9478 9.15862 13.9478 9.66175 13.6707L11.9951 12.3728C12.5201 12.0811 12.9576 11.3447 12.9576 10.7395V8.26759C12.9576 7.66238 12.5274 6.92593 11.9951 6.63427L9.66175 5.33633C9.15862 5.05195 8.34195 5.05195 7.84612 5.33633Z" stroke="#292D32" stroke-width="1.09375" stroke-linecap="round" stroke-linejoin="round"/>
</svg>
