<svg width="18" height="19" viewBox="0 0 18 19" fill="none" xmlns="http://www.w3.org/2000/svg">
<path d="M1.44409 10.2293H4.20763C4.7618 10.2293 5.26493 10.5429 5.51284 11.0387L6.1618 12.3439C6.56284 13.146 7.29201 13.146 7.46701 13.146H10.041C10.5951 13.146 11.0983 12.8325 11.3462 12.3366L11.9951 11.0314C12.2431 10.5356 12.7462 10.222 13.3003 10.222H16.0274" stroke="#48546D" stroke-width="1.09375" stroke-linecap="round" stroke-linejoin="round"/>
<path d="M13.8542 6.58337C15.0624 6.58337 16.0417 5.604 16.0417 4.39587C16.0417 3.18775 15.0624 2.20837 13.8542 2.20837C12.6461 2.20837 11.6667 3.18775 11.6667 4.39587C11.6667 5.604 12.6461 6.58337 13.8542 6.58337Z" stroke="#48546D" stroke-width="1.09375" stroke-linecap="round" stroke-linejoin="round"/>
<path d="M10.2083 2.20837H6.56242C2.91659 2.20837 1.45825 3.66671 1.45825 7.31254V11.6875C1.45825 15.3334 2.91659 16.7917 6.56242 16.7917H10.9374C14.5833 16.7917 16.0416 15.3334 16.0416 11.6875V8.04171" stroke="#48546D" stroke-width="1.09375" stroke-linecap="round" stroke-linejoin="round"/>
</svg>
