<svg width="17" height="17" viewBox="0 0 17 17" fill="none" xmlns="http://www.w3.org/2000/svg">
<path d="M7.50751 14.5481V2.45173C7.50751 1.30335 7.01754 0.843994 5.80025 0.843994H2.70727C1.48998 0.843994 1 1.30335 1 2.45173V14.5481C1 15.6964 1.48998 16.1558 2.70727 16.1558H5.80025C7.01754 16.1558 7.50751 15.6964 7.50751 14.5481Z" stroke="#48546D" stroke-width="1.14838" stroke-linecap="round" stroke-linejoin="round"/>
<path d="M16.312 5.83564V2.35986C16.312 1.28038 15.822 0.843994 14.6047 0.843994H11.5117C10.2944 0.843994 9.80444 1.28038 9.80444 2.35986V5.82798C9.80444 6.91512 10.2944 7.34385 11.5117 7.34385H14.6047C15.822 7.35151 16.312 6.91512 16.312 5.83564Z" stroke="#48546D" stroke-width="1.14838" stroke-linecap="round" stroke-linejoin="round"/>
<path d="M16.312 14.4487V11.3557C16.312 10.1384 15.822 9.64844 14.6047 9.64844H11.5117C10.2944 9.64844 9.80444 10.1384 9.80444 11.3557V14.4487C9.80444 15.666 10.2944 16.156 11.5117 16.156H14.6047C15.822 16.156 16.312 15.666 16.312 14.4487Z" stroke="#48546D" stroke-width="1.14838" stroke-linecap="round" stroke-linejoin="round"/>
</svg>
