<svg width="17" height="17" viewBox="0 0 17 17" fill="none" xmlns="http://www.w3.org/2000/svg">
<path d="M12.698 11.8206L12.9661 13.9931C13.0349 14.5637 12.423 14.9625 11.9349 14.6669L9.05427 12.955C8.73802 12.955 8.42865 12.9344 8.12615 12.8931C8.6349 12.295 8.9374 11.5387 8.9374 10.7206C8.9374 8.76811 7.24615 7.18689 5.15615 7.18689C4.35865 7.18689 3.62302 7.41375 3.01115 7.8125C2.99052 7.64062 2.98364 7.46874 2.98364 7.28999C2.98364 4.16187 5.69927 1.625 9.05427 1.625C12.4093 1.625 15.1249 4.16187 15.1249 7.28999C15.1249 9.14624 14.1693 10.7894 12.698 11.8206Z" stroke="#48546D" stroke-width="1.03125" stroke-linecap="round" stroke-linejoin="round"/>
<path d="M8.9375 10.7205C8.9375 11.5386 8.63501 12.2949 8.12626 12.893C7.44563 13.718 6.36625 14.2474 5.15625 14.2474L3.36187 15.313C3.05937 15.4986 2.67437 15.2442 2.71562 14.8936L2.8875 13.5393C1.96625 12.8999 1.375 11.8755 1.375 10.7205C1.375 9.51049 2.02125 8.44487 3.01125 7.81237C3.62313 7.41362 4.35875 7.18677 5.15625 7.18677C7.24625 7.18677 8.9375 8.76799 8.9375 10.7205Z" stroke="#48546D" stroke-width="1.03125" stroke-linecap="round" stroke-linejoin="round"/>
</svg>
