<svg width="18" height="19" viewBox="0 0 18 19" fill="none" xmlns="http://www.w3.org/2000/svg">
<path d="M10.3993 12.4155H6.75342" stroke="#48546D" stroke-width="1.09375" stroke-miterlimit="10" stroke-linecap="round" stroke-linejoin="round"/>
<path d="M9.23153 2.58606L9.20965 2.6371L7.09507 7.54439H5.01694C4.52111 7.54439 4.04715 7.64648 3.61694 7.82877L4.89298 4.78085L4.92215 4.70793L4.97319 4.59127C4.98778 4.54752 5.00236 4.50377 5.02424 4.46731C5.97944 2.25793 7.05861 1.75481 9.23153 2.58606Z" stroke="#48546D" stroke-width="1.09375" stroke-linecap="round" stroke-linejoin="round"/>
<path d="M13.1619 7.69035C12.8338 7.58827 12.4838 7.54451 12.1338 7.54451H7.09521L9.2098 2.63722L9.23167 2.58618C9.34105 2.62264 9.44313 2.67368 9.55251 2.71743L11.164 3.39556C12.0608 3.76743 12.6879 4.15389 13.0671 4.62056C13.14 4.70806 13.1983 4.78827 13.2494 4.88306C13.315 4.98514 13.366 5.08722 13.3952 5.1966C13.4244 5.26222 13.4463 5.32785 13.4608 5.38618C13.6577 5.99868 13.541 6.74972 13.1619 7.69035Z" stroke="#48546D" stroke-width="1.09375" stroke-linecap="round" stroke-linejoin="round"/>
<path d="M15.6928 11.1033V12.5251C15.6928 12.671 15.6855 12.8168 15.6783 12.9626C15.5397 15.5074 14.1178 16.7908 11.4199 16.7908H5.73242C5.55742 16.7908 5.38242 16.7762 5.21471 16.7543C2.89596 16.6012 1.65638 15.3616 1.50326 13.0428C1.48138 12.8751 1.4668 12.7001 1.4668 12.5251V11.1033C1.4668 9.63763 2.35638 8.37617 3.62513 7.8293C4.06263 7.64701 4.5293 7.54492 5.02513 7.54492H12.1418C12.4991 7.54492 12.8491 7.59596 13.1699 7.69076C14.621 8.13555 15.6928 9.4918 15.6928 11.1033Z" stroke="#48546D" stroke-width="1.09375" stroke-linecap="round" stroke-linejoin="round"/>
<path d="M4.89312 4.78076L3.61707 7.82868C2.34832 8.37555 1.45874 9.63701 1.45874 11.1026V8.96618C1.45874 6.89535 2.93166 5.16722 4.89312 4.78076Z" stroke="#48546D" stroke-width="1.09375" stroke-linecap="round" stroke-linejoin="round"/>
<path d="M15.6902 8.96608V11.1025C15.6902 9.49837 14.6256 8.13483 13.1672 7.69733C13.5464 6.74941 13.6558 6.00566 13.4735 5.38587C13.4589 5.32025 13.437 5.25462 13.4079 5.19629C14.7641 5.89629 15.6902 7.33275 15.6902 8.96608Z" stroke="#48546D" stroke-width="1.09375" stroke-linecap="round" stroke-linejoin="round"/>
</svg>
