<svg width="18" height="19" viewBox="0 0 18 19" fill="none" xmlns="http://www.w3.org/2000/svg">
<path d="M4.90721 15.1145C5.50513 14.4728 6.41659 14.5239 6.94159 15.2239L7.67804 16.2083C8.26867 16.9885 9.22388 16.9885 9.8145 16.2083L10.551 15.2239C11.076 14.5239 11.9874 14.4728 12.5853 15.1145C13.8833 16.4999 14.9405 16.0405 14.9405 14.101V5.88325C14.9478 2.94471 14.2624 2.20825 11.5062 2.20825H5.99367C3.23742 2.20825 2.552 2.94471 2.552 5.88325V14.0937C2.552 16.0405 3.61659 16.4926 4.90721 15.1145Z" stroke="#48546D" stroke-width="1.09375" stroke-linecap="round" stroke-linejoin="round"/>
<path d="M5.9033 8.77083H5.90985" stroke="#48546D" stroke-width="1.45833" stroke-linecap="round" stroke-linejoin="round"/>
<path d="M7.94678 8.77075H11.9572" stroke="#48546D" stroke-width="1.09375" stroke-linecap="round" stroke-linejoin="round"/>
<path d="M5.9033 5.85409H5.90985" stroke="#48546D" stroke-width="1.45833" stroke-linecap="round" stroke-linejoin="round"/>
<path d="M7.94678 5.85425H11.9572" stroke="#48546D" stroke-width="1.09375" stroke-linecap="round" stroke-linejoin="round"/>
</svg>
