<svg width="18" height="19" viewBox="0 0 18 19" fill="none" xmlns="http://www.w3.org/2000/svg">
<path d="M6.67887 8.67596C6.60596 8.66867 6.51846 8.66867 6.43825 8.67596C4.70283 8.61763 3.32471 7.19575 3.32471 5.44575C3.32471 3.65929 4.76846 2.20825 6.56221 2.20825C8.34867 2.20825 9.79971 3.65929 9.79971 5.44575C9.79241 7.19575 8.41429 8.61763 6.67887 8.67596Z" stroke="#48546D" stroke-width="1.09375" stroke-linecap="round" stroke-linejoin="round"/>
<path d="M11.9659 3.66675C13.3805 3.66675 14.518 4.81154 14.518 6.21883C14.518 7.59696 13.4242 8.71987 12.0607 8.77091C12.0023 8.76362 11.9367 8.76362 11.8711 8.77091" stroke="#48546D" stroke-width="1.09375" stroke-linecap="round" stroke-linejoin="round"/>
<path d="M3.03315 11.3667C1.26857 12.548 1.26857 14.473 3.03315 15.647C5.03836 16.9886 8.32691 16.9886 10.3321 15.647C12.0967 14.4657 12.0967 12.5407 10.3321 11.3667C8.3342 10.0324 5.04565 10.0324 3.03315 11.3667Z" stroke="#48546D" stroke-width="1.09375" stroke-linecap="round" stroke-linejoin="round"/>
<path d="M13.3728 15.3333C13.8978 15.2239 14.3936 15.0124 14.802 14.6989C15.9395 13.8458 15.9395 12.4385 14.802 11.5853C14.4009 11.2791 13.9124 11.0749 13.3947 10.9583" stroke="#48546D" stroke-width="1.09375" stroke-linecap="round" stroke-linejoin="round"/>
</svg>
