<svg width="18" height="19" viewBox="0 0 18 19" fill="none" xmlns="http://www.w3.org/2000/svg">
<path d="M15.371 7.00632V11.9938C15.371 12.8105 14.9335 13.5688 14.2262 13.9844L9.89499 16.4855C9.18769 16.8938 8.3127 16.8938 7.59811 16.4855L3.26686 13.9844C2.55957 13.5761 2.12207 12.8177 2.12207 11.9938V7.00632C2.12207 6.18965 2.55957 5.43128 3.26686 5.01566L7.59811 2.51462C8.3054 2.10629 9.1804 2.10629 9.89499 2.51462L14.2262 5.01566C14.9335 5.43128 15.371 6.18236 15.371 7.00632Z" stroke="#48546D" stroke-width="1.09375" stroke-linecap="round" stroke-linejoin="round"/>
<path d="M8.75047 8.7707C9.68878 8.7707 10.4494 8.01004 10.4494 7.07173C10.4494 6.13342 9.68878 5.3728 8.75047 5.3728C7.81216 5.3728 7.05151 6.13342 7.05151 7.07173C7.05151 8.01004 7.81216 8.7707 8.75047 8.7707Z" stroke="#48546D" stroke-width="1.09375" stroke-linecap="round" stroke-linejoin="round"/>
<path d="M11.6671 12.8978C11.6671 11.5853 10.3619 10.5208 8.75041 10.5208C7.13895 10.5208 5.83374 11.5853 5.83374 12.8978" stroke="#48546D" stroke-width="1.09375" stroke-linecap="round" stroke-linejoin="round"/>
</svg>
