<svg width="19" height="19" viewBox="0 0 19 19" fill="none" xmlns="http://www.w3.org/2000/svg">
<path d="M14.4336 5.74263C14.4646 6.21522 14.4258 6.74979 14.3328 7.34634L13.7673 10.9799C13.287 14.0091 11.8847 15.0318 8.85544 14.5592L5.22191 13.9859C4.17601 13.8232 3.37028 13.5443 2.78148 13.1259C1.65811 12.3434 1.33272 11.0573 1.64261 9.07401L2.21592 5.44048C2.69626 2.41125 4.09854 1.38859 7.12777 1.86118L10.7613 2.43449C13.194 2.81411 14.3328 3.80578 14.4336 5.74263Z" stroke="#48546D" stroke-width="1.16211" stroke-linecap="round" stroke-linejoin="round"/>
<path d="M15.8819 10.6388L14.7197 14.1329C13.7513 17.0459 12.2018 17.8206 9.28882 16.8522L5.79474 15.6901C4.03608 15.109 3.05991 14.3033 2.78101 13.1257C3.36981 13.5441 4.17554 13.823 5.22144 13.9857L8.85496 14.559C11.8842 15.0316 13.2865 14.0089 13.7668 10.9797L14.3324 7.34614C14.4253 6.74959 14.4641 6.21502 14.4331 5.74243C16.2847 6.72635 16.6876 8.21385 15.8819 10.6388Z" stroke="#48546D" stroke-width="1.16211" stroke-linecap="round" stroke-linejoin="round"/>
<path d="M6.38394 7.16033C7.12844 7.16033 7.73198 6.55679 7.73198 5.81228C7.73198 5.06777 7.12844 4.46423 6.38394 4.46423C5.63943 4.46423 5.03589 5.06777 5.03589 5.81228C5.03589 6.55679 5.63943 7.16033 6.38394 7.16033Z" stroke="#48546D" stroke-width="1.16211" stroke-linecap="round" stroke-linejoin="round"/>
</svg>
