<svg width="34" height="34" viewBox="0 0 34 34" fill="none" xmlns="http://www.w3.org/2000/svg">
<path d="M9.91659 8.5H24.0833C24.9616 8.5 25.7408 8.52833 26.4349 8.6275C30.1608 9.03833 31.1666 10.795 31.1666 15.5833V18.4167C31.1666 23.205 30.1608 24.9617 26.4349 25.3725C25.7408 25.4717 24.9616 25.5 24.0833 25.5H9.91659C9.03825 25.5 8.25909 25.4717 7.56492 25.3725C3.83909 24.9617 2.83325 23.205 2.83325 18.4167V15.5833C2.83325 10.795 3.83909 9.03833 7.56492 8.6275C8.25909 8.52833 9.03825 8.5 9.91659 8.5Z" stroke="#2697FF" stroke-width="2.125" stroke-linecap="round" stroke-linejoin="round"/>
<path d="M24.0835 25.4999C24.9619 25.4999 25.741 25.4716 26.4352 25.3724C26.4494 25.5708 26.4494 25.7549 26.4494 25.9674V26.4491C26.4494 30.2174 25.5002 31.1666 21.7177 31.1666H12.2827C8.50019 31.1666 7.55103 30.2174 7.55103 26.4491V25.9674C7.55103 25.7549 7.55103 25.5708 7.56519 25.3724C8.25936 25.4716 9.03853 25.4999 9.91686 25.4999H24.0835Z" stroke="#2697FF" stroke-width="2.125" stroke-linecap="round" stroke-linejoin="round"/>
<path d="M12.2827 2.83331H21.7177C25.5002 2.83331 26.4494 3.78248 26.4494 7.55081V8.03248C26.4494 8.24498 26.4494 8.42915 26.4352 8.62748C25.741 8.52831 24.9619 8.49998 24.0835 8.49998H9.91686C9.03853 8.49998 8.25936 8.52831 7.56519 8.62748C7.55103 8.42915 7.55103 8.24498 7.55103 8.03248V7.55081C7.55103 3.78248 8.50019 2.83331 12.2827 2.83331Z" stroke="#2697FF" stroke-width="2.125" stroke-linecap="round" stroke-linejoin="round"/>
</svg>
